# This file uses meters as units for non-parametric coordinates.

mtllib ParedPuerta.mtl
g default
v -5.000000 1.009644 433.238808
v 5.000000 1.009644 433.238808
v -5.000000 301.009644 433.238808
v 5.000000 301.009644 433.238808
v -5.000000 301.009644 -433.238808
v 5.000000 301.009644 -433.238808
v -5.000000 1.009644 -433.238808
v 5.000000 1.009644 -433.238808
vt 0.375000 0.000000
vt 0.625000 0.000000
vt 0.625000 0.250000
vt 0.375000 0.250000
vt 0.625000 0.500000
vt 0.375000 0.500000
vt 0.625000 0.750000
vt 0.375000 0.750000
vt 0.625000 1.000000
vt 0.375000 1.000000
vt 0.875000 0.000000
vt 0.875000 0.250000
vt 0.125000 0.000000
vt 0.125000 0.250000
vn 0.000000 0.000000 1.000000
vn 0.000000 0.000000 1.000000
vn 0.000000 0.000000 1.000000
vn 0.000000 0.000000 1.000000
vn 0.000000 1.000000 0.000000
vn 0.000000 1.000000 0.000000
vn 0.000000 1.000000 0.000000
vn 0.000000 1.000000 0.000000
vn 0.000000 0.000000 -1.000000
vn 0.000000 0.000000 -1.000000
vn 0.000000 0.000000 -1.000000
vn 0.000000 0.000000 -1.000000
vn 0.000000 -1.000000 0.000000
vn 0.000000 -1.000000 0.000000
vn 0.000000 -1.000000 0.000000
vn 0.000000 -1.000000 0.000000
vn 1.000000 0.000000 0.000000
vn 1.000000 0.000000 0.000000
vn 1.000000 0.000000 0.000000
vn 1.000000 0.000000 0.000000
vn -1.000000 0.000000 0.000000
vn -1.000000 0.000000 0.000000
vn -1.000000 0.000000 0.000000
vn -1.000000 0.000000 0.000000
s off
g polySurface1 ParedSimple:pCube2
usemtl lambert6SG
f 1/1/1 2/2/2 4/3/3 3/4/4
f 3/4/5 4/3/6 6/5/7 5/6/8
f 5/6/9 6/5/10 8/7/11 7/8/12
f 7/8/13 8/7/14 2/9/15 1/10/16
f 2/2/17 8/11/18 6/12/19 4/3/20
f 7/13/21 1/1/22 3/4/23 5/14/24
g default
v 5.716063 21.210785 430.551470
v 5.716063 18.789215 430.551470
v 5.716063 21.210785 344.441159
v 5.716063 18.789215 344.441159
v 5.716063 21.210785 258.330869
v 5.716063 18.789215 258.330869
v 5.716063 21.210785 172.220579
v 5.716063 18.789215 172.220579
v 5.716063 21.210785 86.110290
v 5.716063 18.789215 86.110290
v 5.716063 21.210785 0.000000
v 5.716063 18.789215 0.000000
v 5.716063 21.210785 -86.110290
v 5.716063 18.789215 -86.110290
v 5.716063 21.210785 -172.220579
v 5.716063 18.789215 -172.220579
v 5.716063 21.210785 -258.330869
v 5.716063 18.789215 -258.330869
v 5.716063 21.210785 -344.441159
v 5.716063 18.789215 -344.441159
v 5.716063 21.210785 -430.551470
v 5.716063 18.789215 -430.551470
vt 0.000000 0.000000
vt 0.100000 0.000000
vt 0.100000 0.100000
vt 0.000000 0.100000
vt 0.100000 0.200000
vt 0.000000 0.200000
vt 0.100000 0.300000
vt 0.000000 0.300000
vt 0.100000 0.400000
vt 0.000000 0.400000
vt 0.100000 0.500000
vt 0.000000 0.500000
vt 0.100000 0.600000
vt 0.000000 0.600000
vt 0.100000 0.700000
vt 0.000000 0.700000
vt 0.100000 0.800000
vt 0.000000 0.800000
vt 0.100000 0.900000
vt 0.000000 0.900000
vt 0.100000 1.000000
vt 0.000000 1.000000
vn 1.000000 0.000000 0.000000
vn 1.000000 0.000000 0.000000
vn 1.000000 0.000000 0.000000
vn 1.000000 0.000000 0.000000
vn 1.000000 0.000000 0.000000
vn 1.000000 0.000000 0.000000
vn 1.000000 0.000000 0.000000
vn 1.000000 0.000000 0.000000
vn 1.000000 0.000000 0.000000
vn 1.000000 0.000000 0.000000
vn 1.000000 0.000000 0.000000
vn 1.000000 0.000000 0.000000
vn 1.000000 0.000000 0.000000
vn 1.000000 0.000000 0.000000
vn 1.000000 0.000000 0.000000
vn 1.000000 0.000000 0.000000
vn 1.000000 0.000000 0.000000
vn 1.000000 0.000000 0.000000
vn 1.000000 0.000000 0.000000
vn 1.000000 0.000000 0.000000
vn 1.000000 0.000000 0.000000
vn 1.000000 0.000000 0.000000
vn 1.000000 0.000000 0.000000
vn 1.000000 0.000000 0.000000
vn 1.000000 0.000000 0.000000
vn 1.000000 0.000000 0.000000
vn 1.000000 0.000000 0.000000
vn 1.000000 0.000000 0.000000
vn 1.000000 0.000000 0.000000
vn 1.000000 0.000000 0.000000
vn 1.000000 0.000000 0.000000
vn 1.000000 0.000000 0.000000
vn 1.000000 0.000000 0.000000
vn 1.000000 0.000000 0.000000
vn 1.000000 0.000000 0.000000
vn 1.000000 0.000000 0.000000
vn 1.000000 0.000000 0.000000
vn 1.000000 0.000000 0.000000
vn 1.000000 0.000000 0.000000
vn 1.000000 0.000000 0.000000
s off
g ParedSimple:pCube2 polySurface2
usemtl lambert5SG
f 9/15/25 10/16/26 12/17/27 11/18/28
f 11/18/29 12/17/30 14/19/31 13/20/32
f 13/20/33 14/19/34 16/21/35 15/22/36
f 15/22/37 16/21/38 18/23/39 17/24/40
f 17/24/41 18/23/42 20/25/43 19/26/44
f 19/26/45 20/25/46 22/27/47 21/28/48
f 21/28/49 22/27/50 24/29/51 23/30/52
f 23/30/53 24/29/54 26/31/55 25/32/56
f 25/32/57 26/31/58 28/33/59 27/34/60
f 27/34/61 28/33/62 30/35/63 29/36/64
g default
v 9.020884 -2.238763 -319.901797
v 9.020884 271.213361 -319.901797
v 9.020884 264.749844 -311.709940
v 9.020884 -2.238763 -311.709940
v -9.827517 264.749844 -311.709940
v -9.827517 -2.238763 -311.709940
v -9.827517 271.213361 -319.901797
v -9.827517 -2.238763 -319.901797
v 9.020884 264.749844 -175.408083
v 9.020884 271.213361 -166.973782
v 9.020884 -2.238763 -166.973782
v 9.020884 -2.238763 -175.408083
v -9.827517 -2.238763 -175.408083
v -9.827517 264.749844 -175.408083
v -9.827517 -2.238763 -166.973782
v -9.827517 271.213361 -166.973782
vt 0.129000 0.051400
vt 0.129000 0.966700
vt 0.165200 0.931700
vt 0.165200 0.051400
vt 0.757700 0.956300
vt 0.792200 0.956300
vt 0.792200 0.116800
vt 0.757700 0.116800
vt 0.839800 0.931700
vt 0.898600 0.966700
vt 0.898600 0.051400
vt 0.839800 0.051400
vt 0.839700 0.931700
vt 0.899400 0.966700
vt 0.899400 0.051400
vt 0.839700 0.051400
vt 0.790900 0.945900
vt 0.790900 0.127300
vt 0.755500 0.127300
vt 0.755500 0.945900
vt 0.165400 0.931700
vt 0.165400 0.051400
vt 0.128200 0.051400
vt 0.128200 0.966700
vt 0.760800 0.167700
vt 0.760800 0.792700
vt 0.803200 0.792700
vt 0.803200 0.167700
vn 1.000000 0.000000 0.000000
vn 1.000000 0.000000 0.000000
vn 1.000000 0.000000 0.000000
vn 1.000000 0.000000 0.000000
vn -0.000000 0.000000 1.000000
vn -0.000000 0.000000 1.000000
vn -0.000000 0.000000 1.000000
vn -0.000000 0.000000 1.000000
vn -1.000000 0.000000 -0.000000
vn -1.000000 0.000000 -0.000000
vn -1.000000 0.000000 -0.000000
vn -1.000000 0.000000 -0.000000
vn 1.000000 0.000000 0.000000
vn 1.000000 0.000000 0.000000
vn 1.000000 0.000000 0.000000
vn 1.000000 0.000000 0.000000
vn 0.000000 0.000000 -1.000000
vn 0.000000 0.000000 -1.000000
vn 0.000000 0.000000 -1.000000
vn 0.000000 0.000000 -1.000000
vn -1.000000 0.000000 -0.000000
vn -1.000000 0.000000 -0.000000
vn -1.000000 0.000000 -0.000000
vn -1.000000 0.000000 -0.000000
vn 1.000000 0.000000 0.000000
vn 1.000000 0.000000 0.000000
vn 1.000000 0.000000 0.000000
vn 1.000000 0.000000 0.000000
vn 0.000000 -1.000000 0.000000
vn 0.000000 -1.000000 0.000000
vn 0.000000 -1.000000 0.000000
vn 0.000000 -1.000000 0.000000
vn -1.000000 0.000000 -0.000000
vn -1.000000 0.000000 -0.000000
vn -1.000000 0.000000 -0.000000
vn -1.000000 0.000000 -0.000000
s off
g InteriorDoor:InteriorDoorProfile
usemtl lambert2SG
f 31/37/65 32/38/66 33/39/67 34/40/68
f 33/41/69 35/42/70 36/43/71 34/44/72
f 35/45/73 37/46/74 38/47/75 36/48/76
f 39/49/77 40/50/78 41/51/79 42/52/80
f 39/53/81 42/54/82 43/55/83 44/56/84
f 44/57/85 43/58/86 45/59/87 46/60/88
f 39/49/89 33/39/90 32/38/91 40/50/92
f 44/61/93 35/62/94 33/63/95 39/64/96
f 46/60/97 37/46/98 35/45/99 44/57/100
g default
v -7.608855 0.161757 -176.193951
v -7.608855 0.161757 -310.429402
v 8.183945 0.161757 -310.429402
v 8.183945 0.161757 -176.193951
v -7.608855 264.034728 -310.429402
v -7.608855 264.034728 -176.193951
v 8.183945 264.034728 -176.193951
v 8.183945 264.034728 -310.429402
vt 0.762900 0.799000
vt 0.762900 0.170000
vt 0.790300 0.170000
vt 0.790300 0.799000
vt 0.799400 0.094200
vt 0.799400 0.913900
vt 0.763700 0.913900
vt 0.763700 0.094200
vt 0.806400 0.037500
vt 0.806400 0.962500
vt 0.193600 0.962500
vt 0.193600 0.037500
vt 0.774400 0.862200
vt 0.774400 0.142700
vt 0.790600 0.142700
vt 0.790600 0.862200
vt 0.806400 0.962500
vt 0.193600 0.962500
vt 0.193600 0.037500
vt 0.806400 0.037500
vt 0.769000 0.116300
vt 0.786200 0.116300
vt 0.786200 0.873900
vt 0.769000 0.873900
vn 0.000000 -1.000000 0.000000
vn 0.000000 -1.000000 0.000000
vn 0.000000 -1.000000 0.000000
vn 0.000000 -1.000000 0.000000
vn 0.000000 1.000000 -0.000000
vn 0.000000 1.000000 -0.000000
vn 0.000000 1.000000 -0.000000
vn 0.000000 1.000000 -0.000000
vn 1.000000 0.000000 0.000000
vn 1.000000 0.000000 0.000000
vn 1.000000 0.000000 0.000000
vn 1.000000 0.000000 0.000000
vn 0.000000 0.000000 -1.000000
vn 0.000000 0.000000 -1.000000
vn 0.000000 0.000000 -1.000000
vn 0.000000 0.000000 -1.000000
vn -1.000000 0.000000 -0.000000
vn -1.000000 0.000000 -0.000000
vn -1.000000 0.000000 -0.000000
vn -1.000000 0.000000 -0.000000
vn -0.000000 0.000000 1.000000
vn -0.000000 0.000000 1.000000
vn -0.000000 0.000000 1.000000
vn -0.000000 0.000000 1.000000
s off
g InteriorDoor:InteriorDoor
usemtl InteriorDoor:InteriorDoor1
f 47/65/101 48/66/102 49/67/103 50/68/104
f 51/69/105 52/70/106 53/71/107 54/72/108
usemtl lambert3SG
f 49/73/109 54/74/110 53/75/111 50/76/112
usemtl InteriorDoor:InteriorDoor1
f 54/77/113 49/78/114 48/79/115 51/80/116
usemtl lambert4SG
f 52/81/117 51/82/118 48/83/119 47/84/120
usemtl InteriorDoor:InteriorDoor1
f 47/85/121 50/86/122 53/87/123 52/88/124
g default
v 5.716063 291.210785 430.551470
v 5.716063 288.789215 430.551470
v 5.716063 291.210785 344.441159
v 5.716063 288.789215 344.441159
v 5.716063 291.210785 258.330869
v 5.716063 288.789215 258.330869
v 5.716063 291.210785 172.220579
v 5.716063 288.789215 172.220579
v 5.716063 291.210785 86.110290
v 5.716063 288.789215 86.110290
v 5.716063 291.210785 0.000000
v 5.716063 288.789215 0.000000
v 5.716063 291.210785 -86.110290
v 5.716063 288.789215 -86.110290
v 5.716063 291.210785 -172.220579
v 5.716063 288.789215 -172.220579
v 5.716063 291.210785 -258.330869
v 5.716063 288.789215 -258.330869
v 5.716063 291.210785 -344.441159
v 5.716063 288.789215 -344.441159
v 5.716063 291.210785 -430.551470
v 5.716063 288.789215 -430.551470
vt 0.000000 0.000000
vt 0.100000 0.000000
vt 0.100000 0.100000
vt 0.000000 0.100000
vt 0.100000 0.200000
vt 0.000000 0.200000
vt 0.100000 0.300000
vt 0.000000 0.300000
vt 0.100000 0.400000
vt 0.000000 0.400000
vt 0.100000 0.500000
vt 0.000000 0.500000
vt 0.100000 0.600000
vt 0.000000 0.600000
vt 0.100000 0.700000
vt 0.000000 0.700000
vt 0.100000 0.800000
vt 0.000000 0.800000
vt 0.100000 0.900000
vt 0.000000 0.900000
vt 0.100000 1.000000
vt 0.000000 1.000000
vn 1.000000 0.000000 0.000000
vn 1.000000 0.000000 0.000000
vn 1.000000 0.000000 0.000000
vn 1.000000 0.000000 0.000000
vn 1.000000 0.000000 0.000000
vn 1.000000 0.000000 0.000000
vn 1.000000 0.000000 0.000000
vn 1.000000 0.000000 0.000000
vn 1.000000 0.000000 0.000000
vn 1.000000 0.000000 0.000000
vn 1.000000 0.000000 0.000000
vn 1.000000 0.000000 0.000000
vn 1.000000 0.000000 0.000000
vn 1.000000 0.000000 0.000000
vn 1.000000 0.000000 0.000000
vn 1.000000 0.000000 0.000000
vn 1.000000 0.000000 0.000000
vn 1.000000 0.000000 0.000000
vn 1.000000 0.000000 0.000000
vn 1.000000 0.000000 0.000000
vn 1.000000 0.000000 0.000000
vn 1.000000 0.000000 0.000000
vn 1.000000 0.000000 0.000000
vn 1.000000 0.000000 0.000000
vn 1.000000 0.000000 0.000000
vn 1.000000 0.000000 0.000000
vn 1.000000 0.000000 0.000000
vn 1.000000 0.000000 0.000000
vn 1.000000 0.000000 0.000000
vn 1.000000 0.000000 0.000000
vn 1.000000 0.000000 0.000000
vn 1.000000 0.000000 0.000000
vn 1.000000 0.000000 0.000000
vn 1.000000 0.000000 0.000000
vn 1.000000 0.000000 0.000000
vn 1.000000 0.000000 0.000000
vn 1.000000 0.000000 0.000000
vn 1.000000 0.000000 0.000000
vn 1.000000 0.000000 0.000000
vn 1.000000 0.000000 0.000000
s off
g pasted__polySurface2 ParedSimple1:pCube2 group
usemtl lambert5SG
f 55/89/125 56/90/126 58/91/127 57/92/128
f 57/92/129 58/91/130 60/93/131 59/94/132
f 59/94/133 60/93/134 62/95/135 61/96/136
f 61/96/137 62/95/138 64/97/139 63/98/140
f 63/98/141 64/97/142 66/99/143 65/100/144
f 65/100/145 66/99/146 68/101/147 67/102/148
f 67/102/149 68/101/150 70/103/151 69/104/152
f 69/104/153 70/103/154 72/105/155 71/106/156
f 71/106/157 72/105/158 74/107/159 73/108/160
f 73/108/161 74/107/162 76/109/163 75/110/164
