# This file uses meters as units for non-parametric coordinates.

mtllib Puerta.mtl
g default
v -7.608855 0.161757 -19.808936
v -7.608855 0.161757 -154.044387
v 8.183945 0.161757 -154.044387
v 8.183945 0.161757 -19.808936
v -7.608855 264.034728 -154.044387
v -7.608855 264.034728 -19.808936
v 8.183945 264.034728 -19.808936
v 8.183945 264.034728 -154.044387
vt 0.762900 0.799000
vt 0.762900 0.170000
vt 0.790300 0.170000
vt 0.790300 0.799000
vt 0.799400 0.094200
vt 0.799400 0.913900
vt 0.763700 0.913900
vt 0.763700 0.094200
vt 0.981486 0.010394
vt 0.981486 0.989606
vt 0.018514 0.989606
vt 0.018514 0.010394
vt 0.774400 0.862200
vt 0.774400 0.142700
vt 0.790600 0.142700
vt 0.790600 0.862200
vt 0.972507 0.982830
vt 0.027493 0.982830
vt 0.027493 0.017170
vt 0.972507 0.017170
vt 0.769000 0.116300
vt 0.786200 0.116300
vt 0.786200 0.873900
vt 0.769000 0.873900
vn 0.000000 -1.000000 0.000000
vn 0.000000 -1.000000 0.000000
vn 0.000000 -1.000000 0.000000
vn 0.000000 -1.000000 0.000000
vn 0.000000 1.000000 -0.000000
vn 0.000000 1.000000 -0.000000
vn 0.000000 1.000000 -0.000000
vn 0.000000 1.000000 -0.000000
vn 1.000000 0.000000 0.000000
vn 1.000000 0.000000 0.000000
vn 1.000000 0.000000 0.000000
vn 1.000000 0.000000 0.000000
vn 0.000000 0.000000 -1.000000
vn 0.000000 0.000000 -1.000000
vn 0.000000 0.000000 -1.000000
vn 0.000000 0.000000 -1.000000
vn -1.000000 0.000000 -0.000000
vn -1.000000 0.000000 -0.000000
vn -1.000000 0.000000 -0.000000
vn -1.000000 0.000000 -0.000000
vn -0.000000 0.000000 1.000000
vn -0.000000 0.000000 1.000000
vn -0.000000 0.000000 1.000000
vn -0.000000 0.000000 1.000000
s off
g InteriorDoor:InteriorDoor
usemtl lambert7SG
f 1/1/1 2/2/2 3/3/3 4/4/4
f 5/5/5 6/6/6 7/7/7 8/8/8
usemtl lambert3SG
f 3/9/9 8/10/10 7/11/11 4/12/12
usemtl lambert7SG
f 8/13/13 3/14/14 2/15/15 5/16/16
usemtl lambert4SG
f 6/17/17 5/18/18 2/19/19 1/20/20
usemtl lambert7SG
f 1/21/21 4/22/22 7/23/23 6/24/24
