# This file uses meters as units for non-parametric coordinates.

mtllib Ventana.mtl
g default
v -7.709052 40.063812 -59.289266
v 8.290948 40.063812 -59.289266
v -7.709052 120.063809 -59.289266
v 8.290948 120.063809 -59.289266
v -7.709052 120.063809 -189.182218
v 8.290948 120.063809 -189.182218
v -7.709052 40.063812 -189.182218
v 8.290948 40.063812 -189.182218
v 2.994366 43.473703 -120.988418
v 10.994366 43.473703 -120.988418
v 2.994366 116.381185 -120.988418
v 10.994366 116.381185 -120.988418
v 2.994366 116.381185 -127.483066
v 10.994366 116.381185 -127.483066
v 2.994366 43.473703 -127.483066
v 10.994366 43.473703 -127.483066
v 2.994366 78.104760 -189.182218
v 10.994366 78.104760 -189.182218
v 2.994366 78.104760 -59.289266
v 10.994366 78.104760 -59.289266
v 2.994366 81.750134 -59.289266
v 10.994366 81.750134 -59.289266
v 2.994366 81.750134 -189.182218
v 10.994366 81.750134 -189.182218
v 9.689947 115.525064 -63.649438
v 9.689947 108.420291 -63.649438
v 9.689947 101.315524 -63.649438
v 9.689947 94.210751 -63.649438
v 9.689947 87.105981 -63.649438
v 9.689947 80.001211 -63.649438
v 9.689947 72.896441 -63.649438
v 9.689947 65.791671 -63.649438
v 9.689947 58.686898 -63.649438
v 9.689947 51.582128 -63.649438
v 9.689947 44.477359 -63.649438
v 9.689947 115.525064 -75.766699
v 9.689947 108.420291 -75.766699
v 9.689947 101.315524 -75.766699
v 9.689947 94.210751 -75.766699
v 9.689947 87.105981 -75.766699
v 9.689947 80.001211 -75.766699
v 9.689947 72.896441 -75.766699
v 9.689947 65.791671 -75.766699
v 9.689947 58.686898 -75.766699
v 9.689947 51.582128 -75.766699
v 9.689947 44.477359 -75.766699
v 9.689947 115.525064 -87.883960
v 9.689947 108.420291 -87.883960
v 9.689947 101.315524 -87.883960
v 9.689947 94.210751 -87.883960
v 9.689947 87.105981 -87.883960
v 9.689947 80.001211 -87.883960
v 9.689947 72.896441 -87.883960
v 9.689947 65.791671 -87.883960
v 9.689947 58.686898 -87.883960
v 9.689947 51.582128 -87.883960
v 9.689947 44.477359 -87.883960
v 9.689947 115.525064 -100.001220
v 9.689947 108.420291 -100.001220
v 9.689947 101.315524 -100.001220
v 9.689947 94.210751 -100.001220
v 9.689947 87.105981 -100.001220
v 9.689947 80.001211 -100.001220
v 9.689947 72.896441 -100.001220
v 9.689947 65.791671 -100.001220
v 9.689947 58.686898 -100.001220
v 9.689947 51.582128 -100.001220
v 9.689947 44.477359 -100.001220
v 9.689947 115.525064 -112.118481
v 9.689947 108.420291 -112.118481
v 9.689947 101.315524 -112.118481
v 9.689947 94.210751 -112.118481
v 9.689947 87.105981 -112.118481
v 9.689947 80.001211 -112.118481
v 9.689947 72.896441 -112.118481
v 9.689947 65.791671 -112.118481
v 9.689947 58.686898 -112.118481
v 9.689947 51.582128 -112.118481
v 9.689947 44.477359 -112.118481
v 9.689947 115.525064 -124.235742
v 9.689947 108.420291 -124.235742
v 9.689947 101.315524 -124.235742
v 9.689947 94.210751 -124.235742
v 9.689947 87.105981 -124.235742
v 9.689947 80.001211 -124.235742
v 9.689947 72.896441 -124.235742
v 9.689947 65.791671 -124.235742
v 9.689947 58.686898 -124.235742
v 9.689947 51.582128 -124.235742
v 9.689947 44.477359 -124.235742
v 9.689947 115.525064 -136.353003
v 9.689947 108.420291 -136.353003
v 9.689947 101.315524 -136.353003
v 9.689947 94.210751 -136.353003
v 9.689947 87.105981 -136.353003
v 9.689947 80.001211 -136.353003
v 9.689947 72.896441 -136.353003
v 9.689947 65.791671 -136.353003
v 9.689947 58.686898 -136.353003
v 9.689947 51.582128 -136.353003
v 9.689947 44.477359 -136.353003
v 9.689947 115.525064 -148.470263
v 9.689947 108.420291 -148.470263
v 9.689947 101.315524 -148.470263
v 9.689947 94.210751 -148.470263
v 9.689947 87.105981 -148.470263
v 9.689947 80.001211 -148.470263
v 9.689947 72.896441 -148.470263
v 9.689947 65.791671 -148.470263
v 9.689947 58.686898 -148.470263
v 9.689947 51.582128 -148.470263
v 9.689947 44.477359 -148.470263
v 9.689947 115.525064 -160.587524
v 9.689947 108.420291 -160.587524
v 9.689947 101.315524 -160.587524
v 9.689947 94.210751 -160.587524
v 9.689947 87.105981 -160.587524
v 9.689947 80.001211 -160.587524
v 9.689947 72.896441 -160.587524
v 9.689947 65.791671 -160.587524
v 9.689947 58.686898 -160.587524
v 9.689947 51.582128 -160.587524
v 9.689947 44.477359 -160.587524
v 9.689947 115.525064 -172.704785
v 9.689947 108.420291 -172.704785
v 9.689947 101.315524 -172.704785
v 9.689947 94.210751 -172.704785
v 9.689947 87.105981 -172.704785
v 9.689947 80.001211 -172.704785
v 9.689947 72.896441 -172.704785
v 9.689947 65.791671 -172.704785
v 9.689947 58.686898 -172.704785
v 9.689947 51.582128 -172.704785
v 9.689947 44.477359 -172.704785
v 9.689947 115.525064 -184.822046
v 9.689947 108.420291 -184.822046
v 9.689947 101.315524 -184.822046
v 9.689947 94.210751 -184.822046
v 9.689947 87.105981 -184.822046
v 9.689947 80.001211 -184.822046
v 9.689947 72.896441 -184.822046
v 9.689947 65.791671 -184.822046
v 9.689947 58.686898 -184.822046
v 9.689947 51.582128 -184.822046
v 9.689947 44.477359 -184.822046
vt 0.375000 0.000000
vt 0.625000 0.000000
vt 0.375000 0.250000
vt 0.625000 0.250000
vt 0.375000 0.500000
vt 0.625000 0.500000
vt 0.375000 0.750000
vt 0.625000 0.750000
vt 0.375000 1.000000
vt 0.625000 1.000000
vt 0.875000 0.000000
vt 0.875000 0.250000
vt 0.125000 0.000000
vt 0.125000 0.250000
vt 0.375000 0.000000
vt 0.625000 0.000000
vt 0.625000 0.250000
vt 0.375000 0.250000
vt 0.625000 0.500000
vt 0.375000 0.500000
vt 0.625000 0.750000
vt 0.375000 0.750000
vt 0.625000 1.000000
vt 0.375000 1.000000
vt 0.875000 0.000000
vt 0.875000 0.250000
vt 0.125000 0.000000
vt 0.125000 0.250000
vt 0.375000 0.000000
vt 0.625000 0.000000
vt 0.625000 0.250000
vt 0.375000 0.250000
vt 0.625000 0.500000
vt 0.375000 0.500000
vt 0.625000 0.750000
vt 0.375000 0.750000
vt 0.625000 1.000000
vt 0.375000 1.000000
vt 0.875000 0.000000
vt 0.875000 0.250000
vt 0.125000 0.000000
vt 0.125000 0.250000
vt 0.000000 0.000000
vt 0.100000 0.000000
vt 0.100000 0.100000
vt 0.000000 0.100000
vt 0.200000 0.000000
vt 0.200000 0.100000
vt 0.300000 0.000000
vt 0.300000 0.100000
vt 0.400000 0.000000
vt 0.400000 0.100000
vt 0.500000 0.000000
vt 0.500000 0.100000
vt 0.600000 0.000000
vt 0.600000 0.100000
vt 0.700000 0.000000
vt 0.700000 0.100000
vt 0.800000 0.000000
vt 0.800000 0.100000
vt 0.900000 0.000000
vt 0.900000 0.100000
vt 1.000000 0.000000
vt 1.000000 0.100000
vt 0.100000 0.200000
vt 0.000000 0.200000
vt 0.200000 0.200000
vt 0.300000 0.200000
vt 0.400000 0.200000
vt 0.500000 0.200000
vt 0.600000 0.200000
vt 0.700000 0.200000
vt 0.800000 0.200000
vt 0.900000 0.200000
vt 1.000000 0.200000
vt 0.100000 0.300000
vt 0.000000 0.300000
vt 0.200000 0.300000
vt 0.300000 0.300000
vt 0.400000 0.300000
vt 0.500000 0.300000
vt 0.600000 0.300000
vt 0.700000 0.300000
vt 0.800000 0.300000
vt 0.900000 0.300000
vt 1.000000 0.300000
vt 0.100000 0.400000
vt 0.000000 0.400000
vt 0.200000 0.400000
vt 0.300000 0.400000
vt 0.400000 0.400000
vt 0.500000 0.400000
vt 0.600000 0.400000
vt 0.700000 0.400000
vt 0.800000 0.400000
vt 0.900000 0.400000
vt 1.000000 0.400000
vt 0.100000 0.500000
vt 0.000000 0.500000
vt 0.200000 0.500000
vt 0.300000 0.500000
vt 0.400000 0.500000
vt 0.500000 0.500000
vt 0.600000 0.500000
vt 0.700000 0.500000
vt 0.800000 0.500000
vt 0.900000 0.500000
vt 1.000000 0.500000
vt 0.100000 0.600000
vt 0.000000 0.600000
vt 0.200000 0.600000
vt 0.300000 0.600000
vt 0.400000 0.600000
vt 0.500000 0.600000
vt 0.600000 0.600000
vt 0.700000 0.600000
vt 0.800000 0.600000
vt 0.900000 0.600000
vt 1.000000 0.600000
vt 0.100000 0.700000
vt 0.000000 0.700000
vt 0.200000 0.700000
vt 0.300000 0.700000
vt 0.400000 0.700000
vt 0.500000 0.700000
vt 0.600000 0.700000
vt 0.700000 0.700000
vt 0.800000 0.700000
vt 0.900000 0.700000
vt 1.000000 0.700000
vt 0.100000 0.800000
vt 0.000000 0.800000
vt 0.200000 0.800000
vt 0.300000 0.800000
vt 0.400000 0.800000
vt 0.500000 0.800000
vt 0.600000 0.800000
vt 0.700000 0.800000
vt 0.800000 0.800000
vt 0.900000 0.800000
vt 1.000000 0.800000
vt 0.100000 0.900000
vt 0.000000 0.900000
vt 0.200000 0.900000
vt 0.300000 0.900000
vt 0.400000 0.900000
vt 0.500000 0.900000
vt 0.600000 0.900000
vt 0.700000 0.900000
vt 0.800000 0.900000
vt 0.900000 0.900000
vt 1.000000 0.900000
vt 0.100000 1.000000
vt 0.000000 1.000000
vt 0.200000 1.000000
vt 0.300000 1.000000
vt 0.400000 1.000000
vt 0.500000 1.000000
vt 0.600000 1.000000
vt 0.700000 1.000000
vt 0.800000 1.000000
vt 0.900000 1.000000
vt 1.000000 1.000000
vn 0.000000 0.000000 1.000000
vn 0.000000 0.000000 1.000000
vn 0.000000 0.000000 1.000000
vn 0.000000 0.000000 1.000000
vn 0.000000 1.000000 0.000000
vn 0.000000 1.000000 0.000000
vn 0.000000 1.000000 0.000000
vn 0.000000 1.000000 0.000000
vn 0.000000 0.000000 -1.000000
vn 0.000000 0.000000 -1.000000
vn 0.000000 0.000000 -1.000000
vn 0.000000 0.000000 -1.000000
vn 0.000000 -1.000000 0.000000
vn 0.000000 -1.000000 0.000000
vn 0.000000 -1.000000 0.000000
vn 0.000000 -1.000000 0.000000
vn 1.000000 0.000000 0.000000
vn 1.000000 0.000000 0.000000
vn 1.000000 0.000000 0.000000
vn 1.000000 0.000000 0.000000
vn -1.000000 0.000000 0.000000
vn -1.000000 0.000000 0.000000
vn -1.000000 0.000000 0.000000
vn -1.000000 0.000000 0.000000
vn 0.000000 0.000000 1.000000
vn 0.000000 0.000000 1.000000
vn 0.000000 0.000000 1.000000
vn 0.000000 0.000000 1.000000
vn 0.000000 1.000000 0.000000
vn 0.000000 1.000000 0.000000
vn 0.000000 1.000000 0.000000
vn 0.000000 1.000000 0.000000
vn 0.000000 0.000000 -1.000000
vn 0.000000 0.000000 -1.000000
vn 0.000000 0.000000 -1.000000
vn 0.000000 0.000000 -1.000000
vn 0.000000 -1.000000 0.000000
vn 0.000000 -1.000000 0.000000
vn 0.000000 -1.000000 0.000000
vn 0.000000 -1.000000 0.000000
vn 1.000000 0.000000 0.000000
vn 1.000000 0.000000 0.000000
vn 1.000000 0.000000 0.000000
vn 1.000000 0.000000 0.000000
vn -1.000000 0.000000 0.000000
vn -1.000000 0.000000 0.000000
vn -1.000000 0.000000 0.000000
vn -1.000000 0.000000 0.000000
vn 0.000000 -1.000000 0.000000
vn 0.000000 -1.000000 0.000000
vn 0.000000 -1.000000 0.000000
vn 0.000000 -1.000000 0.000000
vn 0.000000 0.000000 1.000000
vn 0.000000 0.000000 1.000000
vn 0.000000 0.000000 1.000000
vn 0.000000 0.000000 1.000000
vn 0.000000 1.000000 0.000000
vn 0.000000 1.000000 0.000000
vn 0.000000 1.000000 0.000000
vn 0.000000 1.000000 0.000000
vn 0.000000 0.000000 -1.000000
vn 0.000000 0.000000 -1.000000
vn 0.000000 0.000000 -1.000000
vn 0.000000 0.000000 -1.000000
vn 1.000000 0.000000 0.000000
vn 1.000000 0.000000 0.000000
vn 1.000000 0.000000 0.000000
vn 1.000000 0.000000 0.000000
vn -1.000000 0.000000 0.000000
vn -1.000000 0.000000 0.000000
vn -1.000000 0.000000 0.000000
vn -1.000000 0.000000 0.000000
vn 1.000000 0.000000 0.000000
vn 1.000000 0.000000 0.000000
vn 1.000000 0.000000 0.000000
vn 1.000000 0.000000 0.000000
vn 1.000000 0.000000 0.000000
vn 1.000000 0.000000 0.000000
vn 1.000000 0.000000 0.000000
vn 1.000000 0.000000 0.000000
vn 1.000000 0.000000 0.000000
vn 1.000000 0.000000 0.000000
vn 1.000000 0.000000 0.000000
vn 1.000000 0.000000 0.000000
vn 1.000000 0.000000 0.000000
vn 1.000000 0.000000 0.000000
vn 1.000000 0.000000 0.000000
vn 1.000000 0.000000 0.000000
vn 1.000000 0.000000 0.000000
vn 1.000000 0.000000 0.000000
vn 1.000000 0.000000 0.000000
vn 1.000000 0.000000 0.000000
vn 1.000000 0.000000 0.000000
vn 1.000000 0.000000 0.000000
vn 1.000000 0.000000 0.000000
vn 1.000000 0.000000 0.000000
vn 1.000000 0.000000 0.000000
vn 1.000000 0.000000 0.000000
vn 1.000000 0.000000 0.000000
vn 1.000000 0.000000 0.000000
vn 1.000000 0.000000 0.000000
vn 1.000000 0.000000 0.000000
vn 1.000000 0.000000 0.000000
vn 1.000000 0.000000 0.000000
vn 1.000000 0.000000 0.000000
vn 1.000000 0.000000 0.000000
vn 1.000000 0.000000 0.000000
vn 1.000000 0.000000 0.000000
vn 1.000000 0.000000 0.000000
vn 1.000000 0.000000 0.000000
vn 1.000000 0.000000 0.000000
vn 1.000000 0.000000 0.000000
vn 1.000000 0.000000 0.000000
vn 1.000000 0.000000 0.000000
vn 1.000000 0.000000 0.000000
vn 1.000000 0.000000 0.000000
vn 1.000000 0.000000 0.000000
vn 1.000000 0.000000 0.000000
vn 1.000000 0.000000 0.000000
vn 1.000000 0.000000 0.000000
vn 1.000000 0.000000 0.000000
vn 1.000000 0.000000 0.000000
vn 1.000000 0.000000 0.000000
vn 1.000000 0.000000 0.000000
vn 1.000000 0.000000 0.000000
vn 1.000000 0.000000 0.000000
vn 1.000000 0.000000 0.000000
vn 1.000000 0.000000 0.000000
vn 1.000000 0.000000 0.000000
vn 1.000000 0.000000 0.000000
vn 1.000000 0.000000 0.000000
vn 1.000000 0.000000 0.000000
vn 1.000000 0.000000 0.000000
vn 1.000000 0.000000 0.000000
vn 1.000000 0.000000 0.000000
vn 1.000000 0.000000 0.000000
vn 1.000000 0.000000 0.000000
vn 1.000000 0.000000 0.000000
vn 1.000000 0.000000 0.000000
vn 1.000000 0.000000 0.000000
vn 1.000000 0.000000 0.000000
vn 1.000000 0.000000 0.000000
vn 1.000000 0.000000 0.000000
vn 1.000000 0.000000 0.000000
vn 1.000000 0.000000 0.000000
vn 1.000000 0.000000 0.000000
vn 1.000000 0.000000 0.000000
vn 1.000000 0.000000 0.000000
vn 1.000000 0.000000 0.000000
vn 1.000000 0.000000 0.000000
vn 1.000000 0.000000 0.000000
vn 1.000000 0.000000 0.000000
vn 1.000000 0.000000 0.000000
vn 1.000000 0.000000 0.000000
vn 1.000000 0.000000 0.000000
vn 1.000000 0.000000 0.000000
vn 1.000000 0.000000 0.000000
vn 1.000000 0.000000 0.000000
vn 1.000000 0.000000 0.000000
vn 1.000000 0.000000 0.000000
vn 1.000000 0.000000 0.000000
vn 1.000000 0.000000 0.000000
vn 1.000000 0.000000 0.000000
vn 1.000000 0.000000 0.000000
vn 1.000000 0.000000 0.000000
vn 1.000000 0.000000 0.000000
vn 1.000000 0.000000 0.000000
vn 1.000000 0.000000 0.000000
vn 1.000000 0.000000 0.000000
vn 1.000000 0.000000 0.000000
vn 1.000000 0.000000 0.000000
vn 1.000000 0.000000 0.000000
vn 1.000000 0.000000 0.000000
vn 1.000000 0.000000 0.000000
vn 1.000000 0.000000 0.000000
vn 1.000000 0.000000 0.000000
vn 1.000000 0.000000 0.000000
vn 1.000000 0.000000 0.000000
vn 1.000000 0.000000 0.000000
vn 1.000000 0.000000 0.000000
vn 1.000000 0.000000 0.000000
vn 1.000000 0.000000 0.000000
vn 1.000000 0.000000 0.000000
vn 1.000000 0.000000 0.000000
vn 1.000000 0.000000 0.000000
vn 1.000000 0.000000 0.000000
vn 1.000000 0.000000 0.000000
vn 1.000000 0.000000 0.000000
vn 1.000000 0.000000 0.000000
vn 1.000000 0.000000 0.000000
vn 1.000000 0.000000 0.000000
vn 1.000000 0.000000 0.000000
vn 1.000000 0.000000 0.000000
s off
g pCube4
usemtl lambert3SG
f 1/1/1 2/2/2 4/4/3 3/3/4
f 3/3/5 4/4/6 6/6/7 5/5/8
f 5/5/9 6/6/10 8/8/11 7/7/12
f 7/7/13 8/8/14 2/10/15 1/9/16
f 2/2/17 8/11/18 6/12/19 4/4/20
f 7/13/21 1/1/22 3/3/23 5/14/24
f 9/15/25 10/16/26 12/17/27 11/18/28
f 11/18/29 12/17/30 14/19/31 13/20/32
f 13/20/33 14/19/34 16/21/35 15/22/36
f 15/22/37 16/21/38 10/23/39 9/24/40
f 10/16/41 16/25/42 14/26/43 12/17/44
f 15/27/45 9/15/46 11/18/47 13/28/48
f 17/29/49 18/30/50 20/31/51 19/32/52
f 19/32/53 20/31/54 22/33/55 21/34/56
f 21/34/57 22/33/58 24/35/59 23/36/60
f 23/36/61 24/35/62 18/37/63 17/38/64
f 18/30/65 24/39/66 22/40/67 20/31/68
f 23/41/69 17/29/70 19/32/71 21/42/72
s 1
usemtl lambert2SG
f 25/43/73 26/44/74 37/45/75 36/46/76
f 26/44/74 27/47/77 38/48/78 37/45/75
f 27/47/77 28/49/79 39/50/80 38/48/78
f 28/49/79 29/51/81 40/52/82 39/50/80
f 29/51/81 30/53/83 41/54/84 40/52/82
f 30/53/83 31/55/85 42/56/86 41/54/84
f 31/55/85 32/57/87 43/58/88 42/56/86
f 32/57/87 33/59/89 44/60/90 43/58/88
f 33/59/89 34/61/91 45/62/92 44/60/90
f 34/61/91 35/63/93 46/64/94 45/62/92
f 36/46/76 37/45/75 48/65/95 47/66/96
f 37/45/75 38/48/78 49/67/97 48/65/95
f 38/48/78 39/50/80 50/68/98 49/67/97
f 39/50/80 40/52/82 51/69/99 50/68/98
f 40/52/82 41/54/84 52/70/100 51/69/99
f 41/54/84 42/56/86 53/71/101 52/70/100
f 42/56/86 43/58/88 54/72/102 53/71/101
f 43/58/88 44/60/90 55/73/103 54/72/102
f 44/60/90 45/62/92 56/74/104 55/73/103
f 45/62/92 46/64/94 57/75/105 56/74/104
f 47/66/96 48/65/95 59/76/106 58/77/107
f 48/65/95 49/67/97 60/78/108 59/76/106
f 49/67/97 50/68/98 61/79/109 60/78/108
f 50/68/98 51/69/99 62/80/110 61/79/109
f 51/69/99 52/70/100 63/81/111 62/80/110
f 52/70/100 53/71/101 64/82/112 63/81/111
f 53/71/101 54/72/102 65/83/113 64/82/112
f 54/72/102 55/73/103 66/84/114 65/83/113
f 55/73/103 56/74/104 67/85/115 66/84/114
f 56/74/104 57/75/105 68/86/116 67/85/115
f 58/77/107 59/76/106 70/87/117 69/88/118
f 59/76/106 60/78/108 71/89/119 70/87/117
f 60/78/108 61/79/109 72/90/120 71/89/119
f 61/79/109 62/80/110 73/91/121 72/90/120
f 62/80/110 63/81/111 74/92/122 73/91/121
f 63/81/111 64/82/112 75/93/123 74/92/122
f 64/82/112 65/83/113 76/94/124 75/93/123
f 65/83/113 66/84/114 77/95/125 76/94/124
f 66/84/114 67/85/115 78/96/126 77/95/125
f 67/85/115 68/86/116 79/97/127 78/96/126
f 69/88/118 70/87/117 81/98/128 80/99/129
f 70/87/117 71/89/119 82/100/130 81/98/128
f 71/89/119 72/90/120 83/101/131 82/100/130
f 72/90/120 73/91/121 84/102/132 83/101/131
f 73/91/121 74/92/122 85/103/133 84/102/132
f 74/92/122 75/93/123 86/104/134 85/103/133
f 75/93/123 76/94/124 87/105/135 86/104/134
f 76/94/124 77/95/125 88/106/136 87/105/135
f 77/95/125 78/96/126 89/107/137 88/106/136
f 78/96/126 79/97/127 90/108/138 89/107/137
f 80/99/129 81/98/128 92/109/139 91/110/140
f 81/98/128 82/100/130 93/111/141 92/109/139
f 82/100/130 83/101/131 94/112/142 93/111/141
f 83/101/131 84/102/132 95/113/143 94/112/142
f 84/102/132 85/103/133 96/114/144 95/113/143
f 85/103/133 86/104/134 97/115/145 96/114/144
f 86/104/134 87/105/135 98/116/146 97/115/145
f 87/105/135 88/106/136 99/117/147 98/116/146
f 88/106/136 89/107/137 100/118/148 99/117/147
f 89/107/137 90/108/138 101/119/149 100/118/148
f 91/110/140 92/109/139 103/120/150 102/121/151
f 92/109/139 93/111/141 104/122/152 103/120/150
f 93/111/141 94/112/142 105/123/153 104/122/152
f 94/112/142 95/113/143 106/124/154 105/123/153
f 95/113/143 96/114/144 107/125/155 106/124/154
f 96/114/144 97/115/145 108/126/156 107/125/155
f 97/115/145 98/116/146 109/127/157 108/126/156
f 98/116/146 99/117/147 110/128/158 109/127/157
f 99/117/147 100/118/148 111/129/159 110/128/158
f 100/118/148 101/119/149 112/130/160 111/129/159
f 102/121/151 103/120/150 114/131/161 113/132/162
f 103/120/150 104/122/152 115/133/163 114/131/161
f 104/122/152 105/123/153 116/134/164 115/133/163
f 105/123/153 106/124/154 117/135/165 116/134/164
f 106/124/154 107/125/155 118/136/166 117/135/165
f 107/125/155 108/126/156 119/137/167 118/136/166
f 108/126/156 109/127/157 120/138/168 119/137/167
f 109/127/157 110/128/158 121/139/169 120/138/168
f 110/128/158 111/129/159 122/140/170 121/139/169
f 111/129/159 112/130/160 123/141/171 122/140/170
f 113/132/162 114/131/161 125/142/172 124/143/173
f 114/131/161 115/133/163 126/144/174 125/142/172
f 115/133/163 116/134/164 127/145/175 126/144/174
f 116/134/164 117/135/165 128/146/176 127/145/175
f 117/135/165 118/136/166 129/147/177 128/146/176
f 118/136/166 119/137/167 130/148/178 129/147/177
f 119/137/167 120/138/168 131/149/179 130/148/178
f 120/138/168 121/139/169 132/150/180 131/149/179
f 121/139/169 122/140/170 133/151/181 132/150/180
f 122/140/170 123/141/171 134/152/182 133/151/181
f 124/143/173 125/142/172 136/153/183 135/154/184
f 125/142/172 126/144/174 137/155/185 136/153/183
f 126/144/174 127/145/175 138/156/186 137/155/185
f 127/145/175 128/146/176 139/157/187 138/156/186
f 128/146/176 129/147/177 140/158/188 139/157/187
f 129/147/177 130/148/178 141/159/189 140/158/188
f 130/148/178 131/149/179 142/160/190 141/159/189
f 131/149/179 132/150/180 143/161/191 142/160/190
f 132/150/180 133/151/181 144/162/192 143/161/191
f 133/151/181 134/152/182 145/163/193 144/162/192
