# This file uses meters as units for non-parametric coordinates.

mtllib MuebleLamp.mtl
g default
v 16.436800 2.112400 18.340401
v 16.436800 2.204800 -18.390200
v 16.436800 0.586400 -20.064899
v 16.436800 0.494000 20.202000
v 19.313801 2.112400 18.340401
v 19.313801 0.494000 20.202000
v 19.313801 0.494000 -20.064899
v 19.313801 2.112400 -18.390200
v 16.436800 15.063700 -18.390200
v 16.436800 16.964600 -20.064899
v 19.313801 14.971300 -18.390200
v 19.313801 14.971300 18.340401
v 19.313801 16.872200 20.202000
v 16.436800 14.971300 18.340401
v 16.436800 16.872200 20.202000
v 19.313801 16.872200 -20.064899
v -16.404499 2.112400 18.390100
v -16.404499 0.494000 20.114901
v -16.404499 0.494000 -20.062500
v -16.404499 2.112400 -18.420099
v -19.211599 2.112400 18.390100
v -19.211599 2.112400 -18.420099
v -19.211599 0.494000 -20.062500
v -19.211599 0.494000 20.114901
v -16.404499 16.872200 -20.062500
v -16.404499 15.112400 -18.420099
v -19.211599 15.112400 -18.420099
v -19.211599 16.872200 20.114901
v -19.211599 15.112400 18.390100
v -16.404499 15.112400 18.390100
v -16.404499 16.872200 20.114901
v -19.211599 16.872200 -20.062500
v -24.783701 16.914101 -19.531500
v 24.675200 16.914101 -19.531500
v -26.325300 28.845798 20.217899
v -26.325300 18.292301 20.217899
v 26.325300 18.292301 20.217899
v 26.325300 28.845798 20.217899
v 26.325300 18.292301 -20.510099
v -24.783701 16.914101 20.217899
v 24.675200 16.914101 20.217899
v -26.325300 18.292301 -20.510099
v -26.325300 28.845798 -20.510099
v 26.325300 28.845798 -20.510099
v -26.325289 28.845783 20.217899
v -26.325285 18.292290 20.217899
v 26.325293 18.292328 20.217899
v 26.325281 28.845810 20.217899
v -35.000000 27.500000 25.000000
v 35.000000 27.500000 25.000000
v -35.000000 32.500000 25.000000
v 35.000000 32.500000 25.000000
v -35.000000 32.500000 -25.000000
v 35.000000 32.500000 -25.000000
v -35.000000 27.500000 -25.000000
v 35.000000 27.500000 -25.000000
v 7.148900 20.778301 19.609600
v 6.096500 20.778301 19.609600
v 6.096500 21.897999 19.609600
v 7.148900 21.897999 19.609600
v 7.148900 20.778301 21.910299
v 6.096500 20.778301 20.952900
v 6.096500 21.897999 20.952900
v 7.148900 21.897999 21.910299
v -7.134900 20.778301 21.910299
v -6.082500 20.778301 20.952900
v -7.134900 20.778301 19.609600
v -7.134900 21.897999 19.609600
v -6.082500 21.897999 19.609600
v -6.082500 20.778301 19.609600
v -6.082500 21.897999 20.952900
v -7.134900 21.897999 21.910299
vt 0.259100 0.801000
vt 0.268000 0.809700
vt 0.268100 0.878700
vt 0.259100 0.888900
vt 0.219200 0.809700
vt 0.234700 0.809200
vt 0.234700 0.878200
vt 0.219200 0.878700
vt 0.027600 0.800700
vt 0.037600 0.809400
vt 0.037600 0.878400
vt 0.027600 0.888600
vt 0.053000 0.809400
vt 0.053000 0.878400
vt 0.465100 0.878700
vt 0.475100 0.888900
vt 0.243600 0.888400
vt 0.268100 0.863300
vt 0.465100 0.863300
vt 0.243600 0.800500
vt 0.465100 0.809700
vt 0.475100 0.801100
vt 0.012200 0.888600
vt 0.012200 0.800700
vt 0.029000 0.982400
vt 0.029000 0.894600
vt 0.037800 0.904000
vt 0.037800 0.973700
vt 0.052800 0.904000
vt 0.052800 0.973700
vt 0.259600 0.982400
vt 0.259600 0.894600
vt 0.268800 0.904000
vt 0.268800 0.973700
vt 0.220200 0.973700
vt 0.220200 0.904000
vt 0.235200 0.904000
vt 0.235200 0.973700
vt 0.244500 0.894600
vt 0.475100 0.894600
vt 0.466300 0.904000
vt 0.466300 0.919100
vt 0.268800 0.919100
vt 0.475100 0.982400
vt 0.466300 0.973700
vt 0.013900 0.894600
vt 0.013900 0.982400
vt 0.244500 0.982400
vt 0.160600 0.158900
vt 0.160600 0.098100
vt 0.460900 0.098100
vt 0.460900 0.158900
vt 0.472100 0.410400
vt 0.694400 0.410400
vt 0.694400 0.698400
vt 0.472100 0.698400
vt 0.460900 0.454100
vt 0.160600 0.454100
vt 0.160600 0.393400
vt 0.460900 0.393400
vt 0.460900 0.158900
vt 0.160600 0.158900
vt 0.521700 0.158900
vt 0.521700 0.393400
vt 0.099800 0.393400
vt 0.099800 0.158900
vt 0.166800 0.091500
vt 0.454700 0.091500
vt 0.460900 0.098100
vt 0.160600 0.098100
vt 0.375000 0.000000
vt 0.625000 0.000000
vt 0.625000 0.250000
vt 0.375000 0.250000
vt 0.625000 0.500000
vt 0.375000 0.500000
vt 0.625000 0.750000
vt 0.375000 0.750000
vt 0.625000 1.000000
vt 0.375000 1.000000
vt 0.875000 0.000000
vt 0.875000 0.250000
vt 0.125000 0.000000
vt 0.125000 0.250000
vt 0.066800 0.859900
vt 0.072400 0.859900
vt 0.072400 0.865900
vt 0.066700 0.865900
vt 0.066800 0.847600
vt 0.072400 0.852700
vt 0.079600 0.859900
vt 0.079600 0.865900
vt 0.072400 0.836400
vt 0.066800 0.841600
vt 0.066800 0.829200
vt 0.072400 0.829200
vt 0.054400 0.847600
vt 0.054400 0.841600
vt 0.143400 0.847600
vt 0.137700 0.852700
vt 0.143400 0.859900
vt 0.143400 0.865900
vt 0.137700 0.865900
vt 0.137700 0.859900
vt 0.137700 0.858700
vt 0.072400 0.858700
vt 0.130500 0.859900
vt 0.130500 0.865900
vt 0.137700 0.836400
vt 0.137700 0.829200
vt 0.143400 0.829200
vt 0.143400 0.841600
vt 0.155700 0.841600
vt 0.155700 0.847600
vn -1.000000 0.000000 0.000000
vn -1.000000 0.000000 0.000000
vn -1.000000 0.000000 0.000000
vn -1.000000 0.000000 0.000000
vn 0.000000 0.000000 1.000000
vn 0.000000 0.000000 1.000000
vn 0.000000 0.000000 1.000000
vn 0.000000 0.000000 1.000000
vn 1.000000 0.000000 0.000000
vn 1.000000 0.000000 0.000000
vn 1.000000 0.000000 0.000000
vn 1.000000 0.000000 0.000000
vn 0.000000 0.000000 -1.000000
vn 0.000000 0.000000 -1.000000
vn 0.000000 0.000000 -1.000000
vn 0.000000 0.000000 -1.000000
vn -1.000000 0.000000 0.000000
vn -1.000000 0.000000 0.000000
vn -1.000000 0.000000 0.000000
vn -1.000000 0.000000 0.000000
vn 1.000000 0.000000 0.000000
vn 1.000000 0.000000 0.000000
vn 1.000000 0.000000 0.000000
vn 1.000000 0.000000 0.000000
vn -0.016100 -0.999870 -0.001300
vn -0.016100 -0.999870 -0.001300
vn -0.016100 -0.999870 -0.001300
vn -0.016100 -0.999870 -0.001300
vn 1.000000 0.000000 0.000000
vn 1.000000 0.000000 0.000000
vn 1.000000 0.000000 0.000000
vn 1.000000 0.000000 0.000000
vn 0.000000 0.000000 -1.000000
vn 0.000000 0.000000 -1.000000
vn 0.000000 0.000000 -1.000000
vn 0.000000 0.000000 -1.000000
vn -1.000000 0.000000 0.000000
vn -1.000000 0.000000 0.000000
vn -1.000000 0.000000 0.000000
vn -1.000000 0.000000 0.000000
vn 0.000000 0.000000 1.000000
vn 0.000000 0.000000 1.000000
vn 0.000000 0.000000 1.000000
vn 0.000000 0.000000 1.000000
vn 1.000000 0.000000 0.000000
vn 1.000000 0.000000 0.000000
vn 1.000000 0.000000 0.000000
vn 1.000000 0.000000 0.000000
vn 0.000000 0.000000 1.000000
vn 0.000000 0.000000 1.000000
vn 0.000000 0.000000 1.000000
vn 0.000000 0.000000 1.000000
vn -1.000000 0.000000 0.000000
vn -1.000000 0.000000 0.000000
vn -1.000000 0.000000 0.000000
vn -1.000000 0.000000 0.000000
vn 0.000000 0.000000 -1.000000
vn 0.000000 0.000000 -1.000000
vn 0.000000 0.000000 -1.000000
vn 0.000000 0.000000 -1.000000
vn 1.000000 0.000000 0.000000
vn 1.000000 0.000000 0.000000
vn 1.000000 0.000000 0.000000
vn 1.000000 0.000000 0.000000
vn -1.000000 0.000000 0.000000
vn -1.000000 0.000000 0.000000
vn -1.000000 0.000000 0.000000
vn -1.000000 0.000000 0.000000
vn 0.000000 -1.000000 0.000000
vn 0.000000 -1.000000 0.000000
vn 0.000000 -1.000000 0.000000
vn 0.000000 -1.000000 0.000000
vn -1.000000 0.000000 0.000000
vn -1.000000 0.000000 0.000000
vn -1.000000 0.000000 0.000000
vn -1.000000 0.000000 0.000000
vn 0.000000 0.000000 -1.000000
vn 0.000000 0.000000 -1.000000
vn 0.000000 0.000000 -1.000000
vn 0.000000 0.000000 -1.000000
vn 1.000000 0.000000 0.000000
vn 1.000000 0.000000 0.000000
vn 1.000000 0.000000 0.000000
vn 1.000000 0.000000 0.000000
vn 0.000000 0.000000 1.000000
vn 0.000000 0.000000 1.000000
vn 0.000000 0.000000 1.000000
vn 0.000000 0.000000 1.000000
vn 0.000000 0.000000 1.000000
vn 0.000000 0.000000 1.000000
vn 0.000000 0.000000 1.000000
vn 0.000000 0.000000 1.000000
vn 0.000000 -1.000000 0.000000
vn 0.000000 -1.000000 0.000000
vn 0.000000 -1.000000 0.000000
vn 0.000000 -1.000000 0.000000
vn 0.000000 0.000000 -1.000000
vn 0.000000 0.000000 -1.000000
vn 0.000000 0.000000 -1.000000
vn 0.000000 0.000000 -1.000000
vn 0.000000 1.000000 0.000000
vn 0.000000 1.000000 0.000000
vn 0.000000 1.000000 0.000000
vn 0.000000 1.000000 0.000000
vn 1.000000 0.000000 0.000000
vn 1.000000 0.000000 0.000000
vn 1.000000 0.000000 0.000000
vn 1.000000 0.000000 0.000000
vn -1.000000 0.000000 0.000000
vn -1.000000 0.000000 0.000000
vn -1.000000 0.000000 0.000000
vn -1.000000 0.000000 0.000000
vn 0.000000 0.000000 1.000000
vn 0.000000 0.000000 1.000000
vn 0.000000 0.000000 1.000000
vn 0.000000 0.000000 1.000000
vn -0.023590 0.000000 0.999722
vn -0.023590 0.000000 0.999722
vn 0.000000 0.000000 1.000000
vn 0.000000 0.000000 1.000000
vn -0.000000 0.000000 1.000000
vn -0.000000 0.000000 1.000000
vn 0.000000 0.000000 1.000000
vn 0.000000 0.000000 1.000000
vn -0.066848 0.000000 0.997763
vn -0.066848 0.000000 0.997763
vn 0.000000 0.000000 1.000000
vn 0.000000 0.000000 1.000000
vn -0.000000 0.000000 0.000000
vn -0.000000 0.000000 0.000000
vn 0.000000 0.000000 1.000000
vn 0.000000 0.000000 1.000000
vn 0.000000 0.000000 1.000000
vn 0.000000 0.000000 1.000000
vn 0.000000 0.000000 1.000000
vn 0.000000 0.000000 1.000000
vn 0.000000 1.000000 0.000000
vn 0.000000 1.000000 0.000000
vn 0.000000 1.000000 0.000000
vn 0.000000 1.000000 0.000000
vn 0.000000 0.000000 -1.000000
vn 0.000000 0.000000 -1.000000
vn 0.000000 0.000000 -1.000000
vn 0.000000 0.000000 -1.000000
vn 0.000000 -1.000000 0.000000
vn 0.000000 -1.000000 0.000000
vn 0.000000 -1.000000 0.000000
vn 0.000000 -1.000000 0.000000
vn 1.000000 0.000000 0.000000
vn 1.000000 0.000000 0.000000
vn 1.000000 0.000000 0.000000
vn 1.000000 0.000000 0.000000
vn -1.000000 0.000000 0.000000
vn -1.000000 0.000000 0.000000
vn -1.000000 0.000000 0.000000
vn -1.000000 0.000000 0.000000
vn 0.000000 0.000000 -1.000000
vn 0.000000 0.000000 -1.000000
vn 0.000000 0.000000 -1.000000
vn 0.000000 0.000000 -1.000000
vn 0.000000 -1.000000 0.000000
vn 0.000000 -1.000000 0.000000
vn 0.000000 -1.000000 0.000000
vn 0.000000 -1.000000 0.000000
vn -1.000000 0.000000 0.000000
vn -1.000000 0.000000 0.000000
vn -1.000000 0.000000 0.000000
vn -1.000000 0.000000 0.000000
vn 0.000000 1.000000 0.000000
vn 0.000000 1.000000 0.000000
vn 0.000000 1.000000 0.000000
vn 0.000000 1.000000 0.000000
vn 1.000000 0.000000 0.000000
vn 1.000000 0.000000 0.000000
vn 1.000000 0.000000 0.000000
vn 1.000000 0.000000 0.000000
vn 0.000000 -1.000000 0.000000
vn 0.000000 -1.000000 0.000000
vn 0.000000 -1.000000 0.000000
vn 0.000000 -1.000000 0.000000
vn 0.000000 0.000000 -1.000000
vn 0.000000 0.000000 -1.000000
vn 0.000000 0.000000 -1.000000
vn 0.000000 0.000000 -1.000000
vn 0.000000 0.000000 -1.000000
vn 0.000000 0.000000 -1.000000
vn 0.000000 0.000000 -1.000000
vn 0.000000 0.000000 -1.000000
vn 0.000000 -1.000000 0.000000
vn 0.000000 -1.000000 0.000000
vn 0.000000 -1.000000 0.000000
vn 0.000000 -1.000000 0.000000
vn 1.000000 0.000000 0.000000
vn 1.000000 0.000000 0.000000
vn 1.000000 0.000000 0.000000
vn 1.000000 0.000000 0.000000
vn 0.000000 1.000000 0.000000
vn 0.000000 1.000000 0.000000
vn 0.000000 1.000000 0.000000
vn 0.000000 1.000000 0.000000
vn -1.000000 0.000000 0.000000
vn -1.000000 0.000000 0.000000
vn -1.000000 0.000000 0.000000
vn -1.000000 0.000000 0.000000
vn 0.000000 1.000000 0.000000
vn 0.000000 1.000000 0.000000
vn 0.000000 1.000000 0.000000
vn 0.000000 1.000000 0.000000
vn 0.000000 0.000000 1.000000
vn 0.000000 0.000000 1.000000
vn 0.000000 0.000000 1.000000
vn 0.000000 0.000000 1.000000
s off
g polySurface8
usemtl lambert3SG
f 3/1/1 2/2/2 9/3/3 10/4/4
f 2/5/5 8/6/6 11/7/7 9/8/8
f 6/9/9 5/10/10 12/11/11 13/12/12
f 5/10/13 1/13/14 14/14/15 12/11/16
f 14/15/17 15/16/18 10/4/19 9/3/20
f 12/11/21 11/7/22 16/17/23 13/12/24
f 9/3/25 11/18/26 12/19/27 14/15/28
f 11/7/29 8/6/30 7/20/31 16/17/32
f 16/17/33 7/20/34 3/1/35 10/4/36
f 14/15/37 1/21/38 4/22/39 15/16/40
f 15/23/41 4/24/42 6/9/43 13/12/44
f 19/25/45 25/26/46 26/27/47 20/28/48
f 20/28/49 26/27/50 27/29/51 22/30/52
f 24/31/53 28/32/54 29/33/55 21/34/56
f 21/35/57 29/36/58 30/37/59 17/38/60
f 30/37/61 26/27/62 25/26/63 31/39/64
f 29/33/65 28/32/66 32/40/67 27/41/68
f 26/42/69 30/43/70 29/33/71 27/41/72
f 27/41/73 32/40/74 23/44/75 22/45/76
f 32/46/77 25/26/78 19/25/79 23/47/80
f 30/37/81 31/39/82 18/48/83 17/38/84
f 31/39/85 28/32/86 24/31/87 18/48/88
f 45/49/89 46/50/90 47/51/91 48/52/92
f 40/53/93 33/54/94 34/55/95 41/56/96
f 39/57/97 42/58/98 43/59/99 44/60/100
f 38/61/101 44/60/102 43/59/103 35/62/104
f 44/60/105 38/61/106 37/63/107 39/64/108
f 35/62/109 43/59/110 42/65/111 36/66/112
f 40/67/113 41/68/114 37/69/115 36/70/116
f 35/62/117 36/70/118 46/50/119 45/49/120
f 36/70/121 37/69/122 47/51/123 46/50/124
f 37/69/125 38/61/126 48/52/127 47/51/128
f 38/61/129 35/62/130 45/49/131 48/52/132
f 49/71/133 50/72/134 52/73/135 51/74/136
f 51/74/137 52/73/138 54/75/139 53/76/140
f 53/76/141 54/75/142 56/77/143 55/78/144
f 55/78/145 56/77/146 50/79/147 49/80/148
f 50/72/149 56/81/150 54/82/151 52/73/152
f 55/83/153 49/71/154 51/74/155 53/84/156
usemtl lambert2SG
f 57/85/157 58/86/158 59/87/159 60/88/160
f 61/89/161 62/90/162 58/86/163 57/85/164
f 62/91/165 63/92/166 59/87/167 58/86/168
f 63/93/169 64/94/170 60/95/171 59/96/172
f 64/94/173 61/89/174 57/97/175 60/98/176
f 62/90/177 61/89/178 65/99/179 66/100/180
f 67/101/181 68/102/182 69/103/183 70/104/184
f 66/100/185 71/105/186 63/106/187 62/90/188
f 65/99/189 67/101/190 70/104/191 66/100/192
f 66/107/193 70/104/194 69/103/195 71/108/196
f 71/109/197 69/110/198 68/111/199 72/112/200
f 72/112/201 68/113/202 67/114/203 65/99/204
f 64/94/205 63/93/206 71/109/207 72/112/208
f 61/89/209 64/94/210 72/112/211 65/99/212
